<svg xmlns="http://www.w3.org/2000/svg" xmlns:xlink="http://www.w3.org/1999/xlink" width="152" zoomAndPan="magnify" viewBox="0 0 114 132.749998" height="177" preserveAspectRatio="xMidYMid meet" version="1.0"><defs><clipPath id="6745aff42f"><path d="M 0.105469 1 L 113 1 L 113 131.75 L 0.105469 131.75 Z M 0.105469 1 " clip-rule="nonzero"/></clipPath></defs><g clip-path="url(#6745aff42f)"><path fill="#b5bac1" d="M 74.101562 84.945312 C 78.445312 81.847656 84.199219 83.4375 88.089844 87.085938 L 107.613281 105.375 C 111.75 109.246094 113.847656 115.253906 110.765625 120.007812 C 106.164062 127.109375 98.171875 131.804688 89.078125 131.804688 C 88.65625 131.804688 88.238281 131.796875 87.820312 131.777344 C 87.820312 131.78125 87.820312 131.78125 87.816406 131.78125 L 87.601562 131.765625 C 87.253906 131.742188 86.910156 131.714844 86.5625 131.6875 C 73.699219 130.628906 61.1875 126.917969 49.824219 120.777344 C 38.089844 114.4375 27.847656 105.65625 19.792969 95.027344 C 11.738281 84.398438 6.054688 72.167969 3.121094 59.15625 C 0.382812 46.992188 0.109375 34.40625 2.308594 22.148438 C 3.527344 13.449219 9.082031 6.136719 16.71875 2.472656 C 21.867188 0 27.59375 2.914062 30.886719 7.578125 L 46.015625 29.011719 C 49.316406 33.683594 50.132812 40.0625 46.070312 44.09375 C 41.40625 48.726562 34.976562 51.585938 27.882812 51.585938 C 27.339844 51.585938 26.800781 51.570312 26.265625 51.535156 C 26.023438 51.519531 25.832031 51.734375 25.878906 51.96875 C 25.886719 52 25.890625 52.03125 25.898438 52.058594 C 26.019531 52.6875 26.152344 53.3125 26.292969 53.9375 C 28.476562 63.636719 32.714844 72.757812 38.722656 80.683594 C 44.730469 88.609375 52.363281 95.15625 61.113281 99.882812 C 62.398438 100.578125 63.960938 99.785156 64.390625 98.390625 C 66.074219 92.90625 69.535156 88.203125 74.101562 84.945312 Z M 74.101562 84.945312 " fill-opacity="1" fill-rule="nonzero"/></g></svg>