<?xml version="1.0" encoding="UTF-8" standalone="no"?>
<!-- Created with Inkscape (http://www.inkscape.org/) -->

<svg
   width="180.49004mm"
   height="180.49005mm"
   viewBox="0 0 180.49004 180.49005"
   version="1.1"
   id="svg1"
   xml:space="preserve"
   inkscape:version="1.4 (86a8ad7, 2024-10-11)"
   sodipodi:docname="CHATTERLYYYYYYYYYYYYYYYA.svg"
   inkscape:export-batch-path="C:\Users\heart\Desktop\b3.6"
   inkscape:export-batch-name="CHATTERLYYYYYYYYYYYYYYYA"
   inkscape:export-filename="..\..\chatterly_fondo.svg"
   inkscape:export-xdpi="232.22856"
   inkscape:export-ydpi="232.22856"
   xmlns:inkscape="http://www.inkscape.org/namespaces/inkscape"
   xmlns:sodipodi="http://sodipodi.sourceforge.net/DTD/sodipodi-0.dtd"
   xmlns:xlink="http://www.w3.org/1999/xlink"
   xmlns="http://www.w3.org/2000/svg"
   xmlns:svg="http://www.w3.org/2000/svg"><sodipodi:namedview
     id="namedview1"
     pagecolor="#ffffff"
     bordercolor="#000000"
     borderopacity="0.25"
     inkscape:showpageshadow="2"
     inkscape:pageopacity="0.0"
     inkscape:pagecheckerboard="0"
     inkscape:deskcolor="#d1d1d1"
     inkscape:document-units="mm"
     inkscape:zoom="1.2127746"
     inkscape:cx="443.61088"
     inkscape:cy="458.0406"
     inkscape:window-width="2560"
     inkscape:window-height="1334"
     inkscape:window-x="-11"
     inkscape:window-y="-11"
     inkscape:window-maximized="1"
     inkscape:current-layer="layer2"
     showgrid="false"><inkscape:page
       x="0"
       y="0"
       width="180.49004"
       height="180.49005"
       id="page1"
       margin="0"
       bleed="0" /></sodipodi:namedview><defs
     id="defs1"><linearGradient
       id="linearGradient78"
       inkscape:collect="always"><stop
         style="stop-color:#9b1b61;stop-opacity:1;"
         offset="0"
         id="stop79" /><stop
         style="stop-color:#de268a;stop-opacity:1;"
         offset="0.14089347"
         id="stop77" /><stop
         style="stop-color:#ff922f;stop-opacity:1;"
         offset="0.79295528"
         id="stop78" /><stop
         style="stop-color:#ff561f;stop-opacity:1;"
         offset="1"
         id="stop80" /></linearGradient><linearGradient
       id="linearGradient23"
       inkscape:collect="always"><stop
         style="stop-color:#e36a22;stop-opacity:1;"
         offset="0.65781993"
         id="stop24" /><stop
         style="stop-color:#e33c22;stop-opacity:1;"
         offset="1"
         id="stop25" /></linearGradient><linearGradient
       id="linearGradient21"
       inkscape:collect="always"><stop
         style="stop-color:#f009e5;stop-opacity:1;"
         offset="0.32218009"
         id="stop22" /><stop
         style="stop-color:#490364;stop-opacity:1;"
         offset="1"
         id="stop23" /></linearGradient><linearGradient
       id="swatch17"
       inkscape:swatch="solid"><stop
         style="stop-color:#490364;stop-opacity:1;"
         offset="0"
         id="stop17" /></linearGradient><linearGradient
       id="swatch9"
       inkscape:swatch="solid"><stop
         style="stop-color:#490364;stop-opacity:1;"
         offset="0"
         id="stop9" /></linearGradient><radialGradient
       inkscape:collect="always"
       xlink:href="#linearGradient21"
       id="radialGradient89"
       cx="58.138809"
       cy="131.8895"
       fx="58.138809"
       fy="131.8895"
       r="59.797955"
       gradientTransform="matrix(1,0,0,1.0927823,0,-12.782417)"
       gradientUnits="userSpaceOnUse" /><radialGradient
       inkscape:collect="always"
       xlink:href="#linearGradient23"
       id="radialGradient92"
       cx="138.79102"
       cy="80.24678"
       fx="138.79102"
       fy="80.24678"
       r="61.231697"
       gradientTransform="matrix(1,0,0,0.91482863,0,6.8347284)"
       gradientUnits="userSpaceOnUse" /><radialGradient
       inkscape:collect="always"
       xlink:href="#linearGradient23"
       id="radialGradient1"
       gradientUnits="userSpaceOnUse"
       gradientTransform="matrix(1,0,0,0.91482863,0,6.8347284)"
       cx="138.79102"
       cy="80.24678"
       fx="138.79102"
       fy="80.24678"
       r="61.231697" /><linearGradient
       inkscape:collect="always"
       xlink:href="#linearGradient78"
       id="linearGradient58"
       x1="141.2292"
       y1="46.523029"
       x2="79.847229"
       y2="193.08981"
       gradientUnits="userSpaceOnUse" /></defs><g
     inkscape:groupmode="layer"
     id="layer2"
     inkscape:label="Layer 1"
     transform="translate(-13.883842,-25.607987)"><circle
       style="opacity:1;fill:url(#linearGradient58);fill-opacity:1;stroke:none;stroke-width:4.3;stroke-linecap:round;stroke-linejoin:round;stroke-dasharray:none;stroke-dashoffset:0;stroke-opacity:1;paint-order:fill markers stroke"
       id="path1"
       cy="115.85301"
       cx="104.12887"
       r="90.245026" /></g><g
     inkscape:label="Capa 1"
     inkscape:groupmode="layer"
     id="layer1"
     transform="matrix(1.2778075,0,0,1.2778075,-42.141961,-42.41441)"><g
       id="g5"
       transform="matrix(0.61917199,0,0,0.61917199,36.43724,35.688848)"><path
         d="m 77.27487,88.305204 c 0.09777,-0.357563 0.247125,-0.829221 0.296623,-1.081587 0.335485,-1.710508 0.737806,-3.444207 1.193208,-5.188831 -0.471644,1.898868 -0.943386,3.839964 -1.489831,6.270418 z"
         style="opacity:1;fill:url(#radialGradient1);stroke:#1f1b5f;stroke-width:3;stroke-linecap:round;paint-order:fill markers stroke"
         id="path7" /><path
         d="m 138.79101,24.730273 c -31.42616,-1e-6 -52.830121,30.011632 -59.971015,57.07817 -0.01862,0.07509 -0.03634,0.15005 -0.05529,0.226343 -0.455402,1.744624 -0.857723,3.478323 -1.193208,5.188831 -0.0495,0.252366 -0.198851,0.724024 -0.296623,1.081587 -1.013383,4.507279 -1.946837,9.542702 -2.013314,13.865306 -0.08847,5.75243 0.86664,13.17235 5.701461,16.29048 6.445545,4.15694 16.681087,1.3013 22.919009,-2.0345 6.23793,-3.3358 19.32529,-11.59506 26.91981,16.47754 0.26428,0.97692 0.47925,1.97377 0.66507,2.98122 2.45312,-0.0661 4.90361,-0.12196 7.3241,-0.12196 33.54119,0 60.7317,-24.85558 60.7317,-55.516509 0,-30.660924 -27.19051,-55.516514 -60.7317,-55.516508 z"
         style="opacity:1;fill:url(#radialGradient92);stroke:#1f1b5f;stroke-width:3;stroke-linecap:round;paint-order:fill markers stroke"
         id="path5" /><path
         d="m 132.06686,134.57627 c -1.70199,-8.40729 -10.2831,-22.27031 -18.45097,-21.4799 -8.13139,0.78688 -16.543702,7.35156 -23.674596,7.65942 -9.598447,0.41439 -12.862698,-5.94503 -14.27365,-12.81078 -0.792387,-3.85579 0.05425,-13.960424 1.607226,-19.639806 0.546445,-2.430454 1.018187,-4.37155 1.489831,-6.270418 0.0198,-0.07587 0.03527,-0.150429 0.05529,-0.226343 0.774009,-3.1209 1.356581,-5.552126 0.981336,-5.618262 C 59.144259,72.549436 39.147618,80.001655 26.908952,94.014417 14.947377,107.70992 11.89299,130.01991 16.602087,147.58324 c 3.307258,12.33495 13.667855,23.2399 25.088908,28.95379 16.397767,8.2037 27.731052,7.07224 54.867969,3.90054 29.223976,-3.41563 16.002636,22.17332 16.002636,22.17332 0,0 24.65906,-40.09242 19.50526,-68.03462 z"
         style="opacity:1;fill:url(#radialGradient89);stroke:#1f1b5f;stroke-width:3;stroke-linecap:round;stroke-linejoin:round;paint-order:fill markers stroke"
         id="path6"
         sodipodi:nodetypes="cssscccssssscc" /></g><g
       id="g1"><ellipse
         style="fill:#1f1b5f;fill-opacity:1;stroke:#1f1b5f;stroke-width:1.18138;stroke-dasharray:none;stroke-opacity:1;paint-order:fill markers stroke"
         id="path25-4-3"
         cx="118.68312"
         cy="79.591927"
         rx="1.8228776"
         ry="5.2472835" /><ellipse
         style="fill:#d6efff;fill-opacity:1;stroke:#1f1b5f;stroke-width:0;stroke-dasharray:none;stroke-opacity:1;paint-order:fill markers stroke"
         id="path27-2"
         cx="119.48081"
         cy="77.330696"
         rx="0.78258842"
         ry="1.2153137" /><ellipse
         style="fill:#1f1b5f;fill-opacity:1;stroke:#1f1b5f;stroke-width:1.18138;stroke-dasharray:none;stroke-opacity:1;paint-order:fill markers stroke"
         id="path25-4-7-2"
         cx="128.95027"
         cy="79.532204"
         rx="1.8228776"
         ry="5.2472835" /><ellipse
         style="fill:#d7efff;fill-opacity:1;stroke:#1f1b5f;stroke-width:0;stroke-dasharray:none;stroke-opacity:1;paint-order:fill markers stroke"
         id="path27-6-1"
         cx="129.74794"
         cy="77.270958"
         rx="0.78258842"
         ry="1.2153137" /><path
         style="opacity:1;fill:#1f1b5f;fill-opacity:1;stroke:#1f1b5f;stroke-width:0.619172;stroke-linecap:round;stroke-linejoin:round;stroke-dasharray:none;stroke-opacity:1;paint-order:fill markers stroke"
         d="m 128.96552,89.942251 c 0,0 -0.0716,4.17886 -5.08626,4.17886 -5.01461,0 -4.9191,-4.22661 -4.9191,-4.22661 0,0 0.29267,3.41027 5.0385,3.36696 4.74583,-0.0433 4.96686,-3.31921 4.96686,-3.31921 z"
         id="path8"
         sodipodi:nodetypes="csczc" /></g><g
       id="g2"><ellipse
         style="opacity:1;fill:#2c2681;fill-opacity:1;stroke:#2c2681;stroke-width:1.18138;stroke-dasharray:none;stroke-opacity:1;paint-order:fill markers stroke"
         id="path25-4"
         cx="68.692764"
         cy="113.28112"
         rx="1.8228776"
         ry="5.2472835" /><path
         style="opacity:1;fill:#2c2681;fill-opacity:1;stroke:#2c2681;stroke-width:0;stroke-dasharray:none;stroke-opacity:1;paint-order:fill markers stroke"
         d="m 71.083238,124.09372 c 0,0 0.534003,3.68276 3.222423,3.13035 2.688422,-0.55242 3.222423,-3.55387 3.222423,-3.55387 0,0 1.1969,7.77064 -2.817318,8.41512 -4.014218,0.64449 -3.627528,-7.9916 -3.627528,-7.9916 z"
         id="path26" /><ellipse
         style="opacity:1;fill:#d6efff;fill-opacity:1;stroke:#1f1b5f;stroke-width:0;stroke-dasharray:none;stroke-opacity:1;paint-order:fill markers stroke"
         id="path27"
         cx="69.49044"
         cy="111.01987"
         rx="0.78258842"
         ry="1.2153137" /><ellipse
         style="fill:#2c2681;fill-opacity:1;stroke:#2c2681;stroke-width:1.18138;stroke-dasharray:none;stroke-opacity:1;paint-order:fill markers stroke"
         id="path25-4-7"
         cx="78.959908"
         cy="113.22138"
         rx="1.8228776"
         ry="5.2472835" /><ellipse
         style="fill:#d7efff;fill-opacity:1;stroke:#1f1b5f;stroke-width:0;stroke-dasharray:none;stroke-opacity:1;paint-order:fill markers stroke"
         id="path27-6"
         cx="79.757591"
         cy="110.96014"
         rx="0.78258842"
         ry="1.2153137" /></g></g><path
     d="m 62.92735,154.27889 c -1.028766,0 -1.942617,-0.23531 -2.741551,-0.70591 -0.798936,-0.48155 -1.422762,-1.16557 -1.871479,-2.05206 -0.448717,-0.88648 -0.673076,-1.93167 -0.673076,-3.13555 0,-1.20387 0.224359,-2.24905 0.673076,-3.13555 0.448717,-0.88648 1.072543,-1.56503 1.871479,-2.03564 0.798934,-0.48154 1.712785,-0.72232 2.741551,-0.72232 2.046588,0 3.491238,0.79346 4.33395,2.38039 l -1.789396,1.3954 c -0.251719,-0.50344 -0.601937,-0.89743 -1.050655,-1.18199 -0.448717,-0.28455 -0.946683,-0.42683 -1.493899,-0.42683 -0.547216,0 -1.03971,0.14228 -1.477483,0.42683 -0.437772,0.28456 -0.782519,0.71138 -1.034238,1.28049 -0.251719,0.55816 -0.377579,1.23123 -0.377579,2.01922 0,0.78799 0.12586,1.46654 0.377579,2.03565 0.251719,0.55816 0.596466,0.97952 1.034238,1.26407 0.437773,0.28455 0.930267,0.42683 1.477483,0.42683 0.536272,0 1.028766,-0.14228 1.477483,-0.42683 0.459662,-0.28455 0.815352,-0.67855 1.067071,-1.18199 l 1.789396,1.3954 c -0.415884,0.77705 -0.995933,1.36804 -1.740147,1.77298 -0.733269,0.40494 -1.59787,0.60741 -2.593803,0.60741 z m 5.827848,-0.22983 v -11.98403 h 2.265474 v 5.36819 c 0.218886,-0.394 0.514383,-0.71138 0.88649,-0.95216 0.372107,-0.25172 0.831768,-0.37758 1.378984,-0.37758 0.831768,0 1.472011,0.26267 1.920728,0.78799 0.448717,0.51439 0.673076,1.18746 0.673076,2.01923 v 5.13836 h -2.265474 v -4.79361 c 0,-0.38305 -0.09303,-0.67855 -0.27908,-0.88649 -0.186054,-0.21888 -0.465134,-0.32833 -0.837241,-0.32833 -0.339273,0 -0.640242,0.0875 -0.902906,0.26266 -0.262664,0.17511 -0.45419,0.40494 -0.574577,0.68949 v 5.05628 z m 11.130396,0.22983 c -0.700437,0 -1.269541,-0.20795 -1.707314,-0.62382 -0.437772,-0.42683 -0.656659,-1.00141 -0.656659,-1.72374 0,-0.87554 0.393995,-1.52126 1.181987,-1.93714 0.798935,-0.42683 1.920727,-0.65119 3.365378,-0.67307 v -0.0492 c 0,-0.394 -0.131332,-0.71138 -0.393996,-0.95216 -0.251719,-0.24077 -0.585521,-0.36116 -1.001405,-0.36116 -0.317386,0 -0.651188,0.0602 -1.001405,0.18058 -0.339274,0.12039 -0.662131,0.31739 -0.968572,0.591 l -1.050655,-1.39541 c 0.393995,-0.40493 0.864601,-0.71138 1.411817,-0.91932 0.547216,-0.20794 1.143681,-0.31191 1.789396,-0.31191 2.320195,0 3.480293,1.05613 3.480293,3.16838 v 4.77719 h -2.117725 l -0.147748,-0.83724 c -0.536272,0.71138 -1.26407,1.06707 -2.183392,1.06707 z m 0.623826,-1.77298 c 0.32833,0 0.612882,-0.0657 0.853657,-0.197 0.251719,-0.14227 0.487022,-0.32285 0.705909,-0.54174 v -1.03424 c -1.565038,0.0766 -2.347557,0.43777 -2.347557,1.08349 0,0.22983 0.07114,0.40494 0.213414,0.52533 0.142277,0.10944 0.333802,0.16416 0.574577,0.16416 z m 8.914148,1.77298 c -0.89743,0 -1.55956,-0.22436 -1.98639,-0.67307 -0.42683,-0.44872 -0.64024,-1.15463 -0.64024,-2.11773 v -3.21763 h -1.362571 v -1.93715 h 1.362571 v -2.00281 l 2.28189,-0.65665 v 2.65946 h 2.1763 -0.9884 v 1.93715 h -1.1879 v 2.97138 c 0,0.35022 0.0657,0.62382 0.19699,0.82083 0.13134,0.18605 0.37759,0.27908 0.73874,0.27908 0.35023,0 0.66214,-0.11492 0.93575,-0.34475 v 1.8879 c -0.37211,0.26265 -0.88102,0.39399 -1.52674,0.39399 z m 5.36819,0 c -0.89744,0 -1.55957,-0.22436 -1.9864,-0.67307 -0.42682,-0.44872 -0.64024,-1.15463 -0.64024,-2.11773 v -3.21763 h -0.89383 v -1.93715 h 0.89383 v -2.00281 l 2.28189,-0.65665 v 2.65946 h 1.87148 v 1.93715 h -1.87148 v 2.97138 c 0,0.35022 0.0657,0.62382 0.197,0.82083 0.13133,0.18605 0.37758,0.27908 0.73874,0.27908 0.35022,0 0.66214,-0.11492 0.93574,-0.34475 v 1.8879 c -0.37211,0.26265 -0.88102,0.39399 -1.52673,0.39399 z m 6.763572,0 c -1.2367,0 -2.238112,-0.34475 -3.004212,-1.03424 -0.75516,-0.68949 -1.13274,-1.70184 -1.13274,-3.03705 0,-0.90838 0.18058,-1.66901 0.54175,-2.28189 0.36115,-0.62382 0.83176,-1.08348 1.41181,-1.37898 0.591,-0.2955 1.220292,-0.44325 1.887902,-0.44325 1.23671,0 2.15603,0.36664 2.75796,1.09991 0.60194,0.73326 0.90291,1.68542 0.90291,2.85647 0,0.25171 -0.0164,0.50891 -0.0492,0.77157 h -5.220442 c 0.10944,0.50344 0.3338,0.89743 0.673072,1.18199 0.33928,0.28455 0.77158,0.42682 1.29691,0.42682 0.3721,0 0.7059,-0.0657 1.0014,-0.19699 0.2955,-0.13133 0.58006,-0.33381 0.85366,-0.60742 l 1.16557,1.47749 c -0.38305,0.36116 -0.82083,0.64572 -1.31332,0.85366 -0.4925,0.20794 -1.08349,0.31191 -1.77298,0.31191 z m 1.32974,-5.00702 c -0.12039,-0.91933 -0.65666,-1.37899 -1.60882,-1.37899 -0.43777,0 -0.79346,0.12038 -1.06707,0.36116 -0.262662,0.24078 -0.443242,0.58005 -0.541742,1.01783 z m 3.64445,4.77719 v -7.71575 h 2.03565 l 0.21341,1.13274 c 0.20794,-0.44872 0.47608,-0.78799 0.80441,-1.01782 0.33927,-0.22983 0.7661,-0.34475 1.28048,-0.34475 0.31739,0 0.54722,0.0383 0.68949,0.11492 v 2.16697 c -0.35021,-0.14228 -0.72232,-0.21341 -1.11631,-0.21341 -0.33928,0 -0.66213,0.10944 -0.96857,0.32833 -0.30644,0.20794 -0.53628,0.50344 -0.6895,0.88649 v 4.66228 z m 9.14398,0.22983 c -0.82082,0 -1.43917,-0.22983 -1.85505,-0.68949 -0.41589,-0.45966 -0.62383,-1.18199 -0.62383,-2.16698 v -9.35739 h 2.26547 v 9.16039 c 0,0.37211 0.0547,0.64025 0.16417,0.80441 0.12038,0.16416 0.31738,0.24625 0.59099,0.24625 0.20794,0 0.38305,-0.0547 0.52533,-0.16416 v 1.93714 c -0.12039,0.0876 -0.26267,0.14774 -0.42683,0.18058 -0.16416,0.0328 -0.37758,0.0492 -0.64025,0.0492 z m 2.92217,3.05346 c -0.591,0 -60.491968,-0.0876 -60.831243,-0.26266 v -1.93714 c 0.361163,0.1751 60.141753,0.26266 60.470083,0.26266 0.37211,0 0.65666,-0.11492 0.85365,-0.34475 0.19701,-0.21888 0.38305,-0.55816 0.55816,-1.01782 l 0.27908,-0.73874 -2.72513,-6.96059 h 2.34755 l 1.46107,4.10412 1.57599,-4.10412 h 2.33114 l -3.62805,8.81565 c -0.27361,0.6676 -0.65119,1.1984 -1.13274,1.5924 -0.4706,0.394 -0.99046,0.59099 -1.55956,0.59099 z"
     id="text5"
     style="font-weight:bold;font-size:26.5136px;line-height:0.85;font-family:'gg sans';-inkscape-font-specification:'gg sans, Bold';text-align:center;letter-spacing:0px;word-spacing:0.00373671px;text-anchor:middle;display:none;fill:#2c2681;stroke:#1f1b5f;stroke-width:22.1973;stroke-linecap:round;stroke-linejoin:round;stroke-opacity:0;paint-order:fill markers stroke"
     aria-label="Chatterly"
     sodipodi:nodetypes="scssscsccssscscssccccscccccscsccscsscccscsccscscccssscccssscccscsssscccccccccccscsccssssccccccccccscsccsscsccsssccsssccssscsccccccccsccsccccsssccscsccssssccsccccccccccs"
     inkscape:label="chatterñy" /></svg>
